<svg width="20" height="20" viewBox="0 0 20 20" fill="none" xmlns="http://www.w3.org/2000/svg">
<g id="checkbox_rectangle" clip-path="url(#clip0_236_3262)">
<path id="Vector" d="M5.17364 0H14.8264C17.6848 0 20 2.31523 20 5.17364V14.8264C20 17.6848 17.6848 20 14.8264 20H5.17364C2.31523 20 0 17.6848 0 14.8264V5.17364C0 2.31523 2.31523 0 5.17364 0Z" fill="#4b87fa"/>
<path id="Vector_2" d="M9.21638 13.651C8.95814 13.651 8.71771 13.5442 8.54852 13.3483L5.39625 9.74184C5.07568 9.36784 5.1113 8.80684 5.47639 8.48627C5.84149 8.1657 6.41139 8.20132 6.73196 8.56642L9.20747 11.3981L13.2591 6.66081C13.5797 6.28681 14.1407 6.24229 14.5147 6.56285C14.8887 6.88342 14.9332 7.44442 14.6126 7.81842L9.89313 13.3304C9.72394 13.5263 9.48352 13.6421 9.22528 13.6421L9.21638 13.651Z" fill="white"/>
</g>
<defs>
<clipPath id="clip0_236_3262">
<rect width="20" height="20" fill="white"/>
</clipPath>
</defs>
</svg>
