<svg width="20" height="20" viewBox="0 0 20 20" fill="none" xmlns="http://www.w3.org/2000/svg">
<g id="checkbox_rectangle" clip-path="url(#clip0_168_1709)">
<path id="Vector" d="M14.8263 0.890625H5.17361C2.80808 0.890625 0.890442 2.80827 0.890442 5.17379V14.8265C0.890442 17.192 2.80808 19.1097 5.17361 19.1097H14.8263C17.1919 19.1097 19.1095 17.192 19.1095 14.8265V5.17379C19.1095 2.80827 17.1919 0.890625 14.8263 0.890625Z" fill="white"/>
<path id="Vector_2" d="M14.8264 20H5.17364C2.32413 20 0 17.6759 0 14.8264V5.17364C0 2.32413 2.32413 0 5.17364 0H14.8264C17.6759 0 20 2.32413 20 5.17364V14.8264C20 17.6759 17.6759 20 14.8264 20ZM5.17364 1.78094C3.30365 1.78094 1.78094 3.30365 1.78094 5.17364V14.8264C1.78094 16.6964 3.30365 18.2191 5.17364 18.2191H14.8264C16.6964 18.2191 18.2191 16.6964 18.2191 14.8264V5.17364C18.2191 3.30365 16.6964 1.78094 14.8264 1.78094H5.17364Z" fill="#B6B6B6"/>
<path id="Vector_3" d="M9.21638 13.651C8.95814 13.651 8.71771 13.5442 8.54852 13.3483L5.39625 9.74184C5.07568 9.36784 5.1113 8.80684 5.47639 8.48627C5.84149 8.1657 6.41139 8.20132 6.73196 8.56642L9.20747 11.3981L13.2591 6.66081C13.5797 6.28681 14.1407 6.24229 14.5147 6.56285C14.8887 6.88342 14.9332 7.44442 14.6126 7.81842L9.89313 13.3304C9.72394 13.5263 9.48352 13.6421 9.22528 13.6421L9.21638 13.651Z" fill="#B6B6B6"/>
</g>
<defs>
<clipPath id="clip0_168_1709">
<rect width="20" height="20" fill="white"/>
</clipPath>
</defs>
</svg>
